<?xml version="1.0" encoding="UTF-8" standalone="no" ?>
<!DOCTYPE svg PUBLIC "-//W3C//DTD SVG 1.1//EN" "http://www.w3.org/Graphics/SVG/1.1/DTD/svg11.dtd">
<svg xmlns="http://www.w3.org/2000/svg" xmlns:xlink="http://www.w3.org/1999/xlink" version="1.1" width="1080" height="1080" viewBox="0 0 1080 1080" xml:space="preserve">
<desc>Created with Fabric.js 5.2.4</desc>
<defs>
</defs>
<g transform="matrix(1 0 0 1 540 540)" id="1ae948b1-125d-49b7-9d22-d2d8cc4a760f"  >
</g>
<g transform="matrix(1 0 0 1 540 540)" id="797a656f-a898-4077-b3ca-8df0a827a8ad"  >
<rect style="stroke: none; stroke-width: 1; stroke-dasharray: none; stroke-linecap: butt; stroke-dashoffset: 0; stroke-linejoin: miter; stroke-miterlimit: 4; fill: rgb(255,255,255); fill-rule: nonzero; opacity: 1; visibility: hidden;" vector-effect="non-scaling-stroke"  x="-540" y="-540" rx="0" ry="0" width="1080" height="1080" />
</g>
<g transform="matrix(3.31 0 0 3.31 540 540)"  >
<path style="stroke: none; stroke-width: 1; stroke-dasharray: none; stroke-linecap: butt; stroke-dashoffset: 0; stroke-linejoin: miter; stroke-miterlimit: 4; fill: rgb(255,255,255); fill-rule: nonzero; opacity: 1;" vector-effect="non-scaling-stroke"  transform=" translate(-51.06, -146.46)" d="M 0 0 C 4.86382627 2.56081313 7.2890033 5.83781192 9 11 C 9.2784729 14.25874329 9.2784729 14.25874329 9.31884766 17.9934082 C 9.32889328 18.67688828 9.3389389 19.36036835 9.34928894 20.06455994 C 9.38002905 22.30995897 9.39713014 24.55523926 9.4140625 26.80078125 C 9.43278157 28.36306269 9.45235554 29.92533411 9.4727478 31.4875946 C 9.52399709 35.58922401 9.56366121 39.69088616 9.60089111 43.79266357 C 9.64097605 47.98230036 9.69204787 52.17180174 9.7421875 56.36132812 C 9.83886144 64.57412613 9.92329335 72.78699135 10 81 C 11.40173462 80.17616821 11.40173462 80.17616821 12.83178711 79.33569336 C 14.08431688 78.6076421 15.33701126 77.87987396 16.58984375 77.15234375 C 17.20259155 76.79120483 17.81533936 76.43006592 18.44665527 76.0579834 C 33.84573584 67.1518177 52.65273356 65.35862873 69.875 69.5 C 89.4801418 75.64937235 104.66284122 88.09756181 114.74609375 106.12109375 C 121.23812806 119.34800654 123.60975597 131.96261354 123.50170898 146.57666016 C 123.50550452 148.06828315 123.51101462 149.55990259 123.51808167 151.05151367 C 123.53188087 155.05098772 123.52098325 159.05002418 123.50437045 163.04947329 C 123.49039306 167.25379962 123.49699335 171.45810381 123.50050354 175.66244507 C 123.50319276 182.70781416 123.48983153 189.7530116 123.46655273 196.79833984 C 123.43984752 204.93690808 123.43823337 213.07519147 123.4499411 221.21378863 C 123.46071924 229.06857159 123.45453821 236.92325179 123.44038582 244.77802658 C 123.43463671 248.11205864 123.43469994 251.44601523 123.43945122 254.78004837 C 123.44422442 258.69877048 123.43410551 262.61718021 123.41249657 266.5358429 C 123.40693699 267.97214581 123.40645581 269.40847879 123.41144943 270.84478378 C 123.41741386 272.80624829 123.40304779 274.76774312 123.38768005 276.72915649 C 123.38403521 278.37437003 123.38403521 278.37437003 123.38031673 280.05282021 C 122.78250468 284.68543155 120.8970553 287.21234168 117.4375 290.25 C 113.32432981 293.20304527 109.98380796 293.5113982 105 293 C 100.32972548 291.29355354 97.64776088 289.21680437 95 285 C 94.61937264 283.00845941 94.27976224 281.00819426 94 279 C 93.10539062 279.53109375 92.21078125 280.0621875 91.2890625 280.609375 C 73.40548133 291.11014518 55.53648295 296.45099984 34.8125 291.4375 C 16.15991946 286.44564229 0.38976071 274.90503796 -9.5559082 258.32421875 C -20.31367349 239.63724801 -21.304796 220.45653332 -21.2746582 199.42211914 C -21.27901479 197.39350193 -21.28420107 195.36488637 -21.29014587 193.33627319 C -21.30343685 187.87190371 -21.30412629 182.4076038 -21.30158257 176.94322133 C -21.30050734 172.37021316 -21.30540964 167.79721874 -21.310188 163.22421354 C -21.32124619 152.43877169 -21.32173967 141.65336469 -21.31567383 130.86791992 C -21.30961955 119.75406845 -21.32199034 108.64034312 -21.3432439 97.52651316 C -21.36085991 87.96182547 -21.36686175 78.39717796 -21.36360615 68.83247465 C -21.36179514 63.12925395 -21.36441259 57.4261235 -21.37832069 51.72291756 C -21.39089643 46.36706473 -21.38895728 41.01140934 -21.37590981 35.65555954 C -21.37354496 33.69319911 -21.37627541 31.73082478 -21.38453293 29.7684803 C -21.39500851 27.08529837 -21.38689365 24.4027782 -21.3742218 21.71961975 C -21.38159609 20.94772798 -21.38897037 20.17583621 -21.39656812 19.38055378 C -21.34310141 13.98130703 -20.23799411 9.93244632 -18 5 C -12.45833794 -0.27133708 -7.49502403 -1.0943148 0 0 Z M 21.2578125 112.55859375 C 9.46755425 125.30757542 8.38935397 140.7877874 8.50390625 157.2578125 C 8.50375087 159.09618181 8.50225545 160.93455145 8.49949646 162.7729187 C 8.49812068 166.60380748 8.51053412 170.43431812 8.53344727 174.26513672 C 8.56186965 179.14808167 8.55907247 184.03040151 8.54635715 188.91339302 C 8.5393672 192.70206948 8.54722629 196.4906042 8.55961418 200.27926254 C 8.56409367 202.07878957 8.56449653 203.87833199 8.56054878 205.67786026 C 8.54089224 222.51242465 10.7560583 237.1838421 22.765625 249.9609375 C 32.25000028 258.61625899 42.65802589 261.65498937 55.2890625 261.33984375 C 66.12912843 260.34712192 75.38856027 254.90802745 82.84765625 247.0546875 C 90.74284482 237.07969222 94.31776259 226.16206072 94.2746582 213.54956055 C 94.2823246 212.36218292 94.2823246 212.36218292 94.29014587 211.15081787 C 94.30391969 208.56270551 94.30309416 205.97486316 94.30078125 203.38671875 C 94.30467534 201.56744795 94.30901146 199.74817805 94.31376648 197.9289093 C 94.32120282 194.1255091 94.32095658 190.32220176 94.31567383 186.51879883 C 94.30988759 181.67399555 94.3268024 176.82957562 94.3500185 171.98483562 C 94.36483876 168.2295972 94.36561624 164.47444928 94.36250877 160.71918678 C 94.36301799 158.93442845 94.36817958 157.14966451 94.37832069 155.36493492 C 94.46175636 138.62731047 92.63990339 123.83083036 80.5625 111.0625 C 62.55561543 94.57958339 38.60958285 96.0499345 21.2578125 112.55859375 Z M -16.3125 173.5625 C -19.15219883 177.66428719 -19.66169053 181.06489148 -19 186 C -16.77915243 190.35944153 -14.57923841 193.16830464 -10 195 C -5.96935961 195.75147533 -2.57066649 195.89073714 1.06640625 193.828125 C 4.47631467 191.06602799 7.13710813 188.42232082 8 184 C 7.80247968 178.56819117 6.49894924 175.16091261 3 171 C -4.24906802 166.3729353 -10.43343856 167.04786435 -16.3125 173.5625 Z M 99 172 C 96.49630284 175.05761246 95.15494895 178.07030631 94.5 182 C 95.33391948 187.0035169 97.39525424 190.57865375 101.1875 193.9375 C 105.2069876 195.45597309 108.75889103 195.6731919 113 195 C 117.38410756 192.80794622 120.13092657 190.56884617 122 186 C 122.54067915 181.13388763 122.54236245 179.02661464 120.25 174.6875 C 116.93016232 170.72213832 115.2909099 169.31743686 110.1875 168.0625 C 105.5621831 167.65767711 102.45332139 168.94009497 99 172 Z" stroke-linecap="round" />
</g>
</svg>