<?xml version="1.0" encoding="UTF-8"?>
<svg version="1.1" xmlns="http://www.w3.org/2000/svg" width="1223" height="315">
<path d="M0 0 C4.86382627 2.56081313 7.2890033 5.83781192 9 11 C9.2784729 14.25874329 9.2784729 14.25874329 9.31884766 17.9934082 C9.32889328 18.67688828 9.3389389 19.36036835 9.34928894 20.06455994 C9.38002905 22.30995897 9.39713014 24.55523926 9.4140625 26.80078125 C9.43278157 28.36306269 9.45235554 29.92533411 9.4727478 31.4875946 C9.52399709 35.58922401 9.56366121 39.69088616 9.60089111 43.79266357 C9.64097605 47.98230036 9.69204787 52.17180174 9.7421875 56.36132812 C9.83886144 64.57412613 9.92329335 72.78699135 10 81 C11.40173462 80.17616821 11.40173462 80.17616821 12.83178711 79.33569336 C14.08431688 78.6076421 15.33701126 77.87987396 16.58984375 77.15234375 C17.20259155 76.79120483 17.81533936 76.43006592 18.44665527 76.0579834 C33.84573584 67.1518177 52.65273356 65.35862873 69.875 69.5 C89.4801418 75.64937235 104.66284122 88.09756181 114.74609375 106.12109375 C121.23812806 119.34800654 123.60975597 131.96261354 123.50170898 146.57666016 C123.50550452 148.06828315 123.51101462 149.55990259 123.51808167 151.05151367 C123.53188087 155.05098772 123.52098325 159.05002418 123.50437045 163.04947329 C123.49039306 167.25379962 123.49699335 171.45810381 123.50050354 175.66244507 C123.50319276 182.70781416 123.48983153 189.7530116 123.46655273 196.79833984 C123.43984752 204.93690808 123.43823337 213.07519147 123.4499411 221.21378863 C123.46071924 229.06857159 123.45453821 236.92325179 123.44038582 244.77802658 C123.43463671 248.11205864 123.43469994 251.44601523 123.43945122 254.78004837 C123.44422442 258.69877048 123.43410551 262.61718021 123.41249657 266.5358429 C123.40693699 267.97214581 123.40645581 269.40847879 123.41144943 270.84478378 C123.41741386 272.80624829 123.40304779 274.76774312 123.38768005 276.72915649 C123.38403521 278.37437003 123.38403521 278.37437003 123.38031673 280.05282021 C122.78250468 284.68543155 120.8970553 287.21234168 117.4375 290.25 C113.32432981 293.20304527 109.98380796 293.5113982 105 293 C100.32972548 291.29355354 97.64776088 289.21680437 95 285 C94.61937264 283.00845941 94.27976224 281.00819426 94 279 C93.10539062 279.53109375 92.21078125 280.0621875 91.2890625 280.609375 C73.40548133 291.11014518 55.53648295 296.45099984 34.8125 291.4375 C16.15991946 286.44564229 0.38976071 274.90503796 -9.5559082 258.32421875 C-20.31367349 239.63724801 -21.304796 220.45653332 -21.2746582 199.42211914 C-21.27901479 197.39350193 -21.28420107 195.36488637 -21.29014587 193.33627319 C-21.30343685 187.87190371 -21.30412629 182.4076038 -21.30158257 176.94322133 C-21.30050734 172.37021316 -21.30540964 167.79721874 -21.310188 163.22421354 C-21.32124619 152.43877169 -21.32173967 141.65336469 -21.31567383 130.86791992 C-21.30961955 119.75406845 -21.32199034 108.64034312 -21.3432439 97.52651316 C-21.36085991 87.96182547 -21.36686175 78.39717796 -21.36360615 68.83247465 C-21.36179514 63.12925395 -21.36441259 57.4261235 -21.37832069 51.72291756 C-21.39089643 46.36706473 -21.38895728 41.01140934 -21.37590981 35.65555954 C-21.37354496 33.69319911 -21.37627541 31.73082478 -21.38453293 29.7684803 C-21.39500851 27.08529837 -21.38689365 24.4027782 -21.3742218 21.71961975 C-21.38159609 20.94772798 -21.38897037 20.17583621 -21.39656812 19.38055378 C-21.34310141 13.98130703 -20.23799411 9.93244632 -18 5 C-12.45833794 -0.27133708 -7.49502403 -1.0943148 0 0 Z M21.2578125 112.55859375 C9.46755425 125.30757542 8.38935397 140.7877874 8.50390625 157.2578125 C8.50375087 159.09618181 8.50225545 160.93455145 8.49949646 162.7729187 C8.49812068 166.60380748 8.51053412 170.43431812 8.53344727 174.26513672 C8.56186965 179.14808167 8.55907247 184.03040151 8.54635715 188.91339302 C8.5393672 192.70206948 8.54722629 196.4906042 8.55961418 200.27926254 C8.56409367 202.07878957 8.56449653 203.87833199 8.56054878 205.67786026 C8.54089224 222.51242465 10.7560583 237.1838421 22.765625 249.9609375 C32.25000028 258.61625899 42.65802589 261.65498937 55.2890625 261.33984375 C66.12912843 260.34712192 75.38856027 254.90802745 82.84765625 247.0546875 C90.74284482 237.07969222 94.31776259 226.16206072 94.2746582 213.54956055 C94.2823246 212.36218292 94.2823246 212.36218292 94.29014587 211.15081787 C94.30391969 208.56270551 94.30309416 205.97486316 94.30078125 203.38671875 C94.30467534 201.56744795 94.30901146 199.74817805 94.31376648 197.9289093 C94.32120282 194.1255091 94.32095658 190.32220176 94.31567383 186.51879883 C94.30988759 181.67399555 94.3268024 176.82957562 94.3500185 171.98483562 C94.36483876 168.2295972 94.36561624 164.47444928 94.36250877 160.71918678 C94.36301799 158.93442845 94.36817958 157.14966451 94.37832069 155.36493492 C94.46175636 138.62731047 92.63990339 123.83083036 80.5625 111.0625 C62.55561543 94.57958339 38.60958285 96.0499345 21.2578125 112.55859375 Z M-16.3125 173.5625 C-19.15219883 177.66428719 -19.66169053 181.06489148 -19 186 C-16.77915243 190.35944153 -14.57923841 193.16830464 -10 195 C-5.96935961 195.75147533 -2.57066649 195.89073714 1.06640625 193.828125 C4.47631467 191.06602799 7.13710813 188.42232082 8 184 C7.80247968 178.56819117 6.49894924 175.16091261 3 171 C-4.24906802 166.3729353 -10.43343856 167.04786435 -16.3125 173.5625 Z M99 172 C96.49630284 175.05761246 95.15494895 178.07030631 94.5 182 C95.33391948 187.0035169 97.39525424 190.57865375 101.1875 193.9375 C105.2069876 195.45597309 108.75889103 195.6731919 113 195 C117.38410756 192.80794622 120.13092657 190.56884617 122 186 C122.54067915 181.13388763 122.54236245 179.02661464 120.25 174.6875 C116.93016232 170.72213832 115.2909099 169.31743686 110.1875 168.0625 C105.5621831 167.65767711 102.45332139 168.94009497 99 172 Z " fill="#FFFFFF" transform="translate(21,11)"/>
<path d="M0 0 C4.17355234 1.84412778 6.23936714 4.44895436 9 8 C9.76183594 7.59007813 10.52367187 7.18015625 11.30859375 6.7578125 C24.28553711 -0.01417542 36.93788464 -2.50379821 51.3046875 1.95703125 C61.47031566 5.89068736 69.32425785 11.44985941 76 20 C76.58265625 19.35933594 77.1653125 18.71867187 77.765625 18.05859375 C88.62646415 6.60006691 100.43974253 0.17779836 116.4375 -0.4375 C129.62866262 -0.07458524 141.12736104 5.4694229 151 14 C164.65618359 29.73734855 168.48658384 46.23652339 168.43359375 66.58984375 C168.43816772 68.1487297 168.44347685 69.70761364 168.44947815 71.26649475 C168.45833779 74.5062794 168.45606344 77.74581651 168.44604492 80.9855957 C168.43448175 85.12705466 168.45491387 89.26767018 168.48396206 93.40901852 C168.50232706 96.61673848 168.50203247 99.8242555 168.49632454 103.03201485 C168.4961718 104.55937457 168.50217689 106.08674846 168.51461601 107.61405754 C168.52955561 109.74576764 168.51883519 111.8759063 168.50170898 114.00756836 C168.50154282 115.2163414 168.50137665 116.42511444 168.50120544 117.67051697 C167.89586917 121.69173598 166.5214142 123.84407435 164 127 C160.53613876 129.38621552 158.65505456 130.01149219 154.4375 129.9375 C150.63037504 128.89919319 148.74065505 127.81895948 146 125 C144.00803436 121.04378538 143.74938754 117.76381587 143.74462891 113.36474609 C143.73919823 112.39529053 143.73919823 112.39529053 143.73365784 111.40625 C143.72678984 110.00892925 143.72425351 108.61158182 143.72560501 107.21424484 C143.72657593 104.99271541 143.71355918 102.77166244 143.69662476 100.55020142 C143.65054248 94.23614238 143.62578479 87.9221317 143.61914062 81.60791016 C143.61408749 77.7374966 143.58964332 73.86757843 143.55381393 69.99733353 C143.54409921 68.53276182 143.54163786 67.06812123 143.54698563 65.60352707 C143.58739717 53.98486215 142.46094642 43.43514885 134.0390625 34.7265625 C127.9034898 29.53130745 121.72941304 27.17552411 113.67578125 27.57421875 C107.39255191 28.57403189 101.44517377 31.4346864 97 36 C89.8149316 46.09502111 88.71371775 54.95785171 88.72560501 67.07057571 C88.72657991 69.2657687 88.7135182 71.46048488 88.69662476 73.65560913 C88.65062525 79.89081259 88.62573651 86.12596042 88.61914062 92.36132812 C88.61411678 96.18979559 88.58983498 100.0177551 88.55381393 103.84605026 C88.54404725 105.29800742 88.54166687 106.75003466 88.54698563 108.20201492 C88.5540826 110.23316374 88.53464384 112.26435223 88.51416016 114.29541016 C88.51131012 115.44820465 88.50846008 116.60099915 88.50552368 117.78872681 C87.88495307 121.73082063 86.46384654 123.89433201 84 127 C80.5559438 129.37257205 78.62895426 130 74.4375 130 C70.29266873 128.7942309 68.67041415 127.35709208 66 124 C64.02489139 120.02394098 63.74939197 116.76345976 63.74462891 112.34887695 C63.74100845 111.70096695 63.737388 111.05305695 63.73365784 110.38551331 C63.72679013 108.98491633 63.72425346 107.58429274 63.72560501 106.18367958 C63.72657561 103.95822436 63.71356354 101.73324516 63.69662476 99.50785828 C63.65052845 93.18276692 63.62577749 86.85772438 63.61914062 80.5324707 C63.61409331 76.65557768 63.58967944 72.77918059 63.55381393 68.90245628 C63.54408737 67.43426698 63.54164453 65.96600882 63.54698563 64.49779701 C63.58700852 52.94976163 62.28633891 43.41258528 54.0390625 34.76171875 C47.95806936 29.50783387 41.71341969 27.16885345 33.67578125 27.578125 C26.7298283 28.67325335 21.5225742 31.59803637 17 37 C16.56945312 37.50273438 16.13890625 38.00546875 15.6953125 38.5234375 C8.93496244 47.0438787 8.56568015 56.82493508 8.58930969 67.31260109 C8.5938464 69.50358555 8.5796301 71.69378708 8.56091309 73.88468933 C8.51822966 79.31672374 8.50686907 84.74873542 8.49468994 90.1809082 C8.48314603 94.79371296 8.45957223 99.40615253 8.41999817 104.01880455 C8.4064766 106.17096408 8.41058675 108.32262279 8.41540527 110.47480774 C8.40529419 111.78354355 8.39518311 113.09227936 8.38476562 114.44067383 C8.38271118 115.58965652 8.38065674 116.73863922 8.37854004 117.92243958 C7.87358982 122.02772475 6.10049301 124.45930978 3.75 127.75 C0.89016665 129.79273811 -1.52620753 129.88420692 -5 130 C-8.48048321 129.11513139 -10.96447698 128.38103662 -13.18084812 125.42514896 C-16.21857186 119.67046256 -16.56583549 114.7235125 -16.50170898 108.28881836 C-16.50711197 107.24550858 -16.51251495 106.20219879 -16.51808167 105.12727356 C-16.53053194 101.69783677 -16.51410289 98.26924547 -16.49609375 94.83984375 C-16.49624881 92.44665991 -16.49773897 90.05347582 -16.50050354 87.66029358 C-16.50188584 82.65289158 -16.48935627 77.64577659 -16.46655273 72.63842773 C-16.43815369 66.22706374 -16.44091208 59.81617588 -16.45364285 53.40477657 C-16.4606044 48.46590625 -16.45280545 43.52714558 -16.44038582 38.58828926 C-16.43587708 36.22444644 -16.43552946 33.86059183 -16.43945122 31.49674797 C-16.44236841 28.19151631 -16.42583172 24.88693632 -16.40405273 21.58178711 C-16.40855438 20.60964264 -16.41305603 19.63749817 -16.41769409 18.63589478 C-16.35607358 12.99440716 -15.73734383 8.9722084 -13 4 C-8.73775996 0.22210542 -5.64537821 -0.71850268 0 0 Z " fill="#FFFFFF" transform="translate(576,74)"/>
<path d="M0 0 C13.87363907 12.10383467 21.37816742 27.43034763 23.125 45.6875 C23.62264162 55.04629001 23.55355636 64.41779369 23.50585938 73.78656006 C23.49799309 76.50640839 23.51253848 79.2259643 23.52683067 81.94577217 C23.54029128 85.21647743 23.53086946 88.48709809 23.5234375 91.7578125 C23.52951019 92.9672049 23.53558289 94.17659729 23.5418396 95.42263794 C23.48151777 102.62521856 23.07652065 107.56732103 17.9375 113 C14.38643125 115.13064125 11.21664248 115.87419091 7.125 115.6875 C2.63782579 114.41613397 0.65426918 113.35605054 -2.25 109.6875 C-3.875 106.6875 -3.875 106.6875 -4.875 103.6875 C-5.46925781 104.07421875 -6.06351563 104.4609375 -6.67578125 104.859375 C-22.48495067 114.79235237 -41.02889648 117.68255071 -59.375 113.625 C-77.87517161 107.85698673 -91.95882106 95.99553544 -101.125 78.9375 C-108.4365265 63.3956188 -109.23460952 45.55249909 -104.1953125 29.18359375 C-100.25146886 18.74057584 -94.7923064 10.51890434 -86.875 2.6875 C-86.09962891 1.86185547 -86.09962891 1.86185547 -85.30859375 1.01953125 C-62.35746735 -21.33234903 -23.83724492 -18.62799914 0 0 Z M-72.7265625 26.890625 C-79.59186924 36.56292907 -80.96274315 45.92009683 -79.875 57.6875 C-77.68542152 68.00979854 -71.67427005 76.42262074 -63.03125 82.40625 C-53.48563493 88.07828214 -43.21959169 90.09776112 -32.34375 87.46484375 C-22.54995655 84.38103854 -14.77949634 78.92517098 -9.2734375 70.12890625 C-3.82191203 59.65623891 -2.32996701 50.47461875 -5.5 39.0625 C-7.41734451 33.35069048 -9.73345964 29.05056462 -13.875 24.6875 C-14.44992187 24.07261719 -15.02484375 23.45773438 -15.6171875 22.82421875 C-23.02339356 15.64849628 -31.63933028 12.23062848 -41.9375 12.125 C-54.57940182 12.38880767 -64.54920443 17.16060401 -72.7265625 26.890625 Z " fill="#FFFFFF" transform="translate(1199.875,88.3125)"/>
<path d="M0 0 C14.14080573 11.5040946 22.33754127 25.80581541 25.38525391 43.76757812 C25.78865797 48.86126799 25.8334493 53.93834519 25.81884766 59.04492188 C25.82342343 60.46928655 25.82873308 61.89364903 25.83473206 63.31800842 C25.84358242 66.2753305 25.84132786 69.23238124 25.83129883 72.18969727 C25.8197291 75.9679815 25.84018186 79.7453421 25.86921597 83.52350521 C25.88758864 86.45329143 25.88728501 89.38285563 25.88157845 92.31268501 C25.88142584 93.70607374 25.88741982 95.09947809 25.89986992 96.4928112 C26.00403313 110.03770316 26.00403313 110.03770316 21.38525391 114.76757812 C16.9168975 117.43140598 13.36257954 118.31061494 8.31103516 117.40820312 C4.80751987 116.24273354 2.94079021 114.44480663 0.38525391 111.76757812 C-0.98974609 108.95507812 -0.98974609 108.95507812 -1.61474609 106.76757812 C-4.94815143 108.04332585 -8.04341019 109.5029439 -11.17724609 111.20507812 C-25.38033435 118.21331729 -42.8570075 119.18525209 -58.17724609 115.20507812 C-76.06386274 109.06521449 -90.24371004 97.7976954 -98.61474609 80.76757812 C-105.93363042 63.73231657 -106.66007643 45.85323274 -100.55224609 28.33007812 C-93.67464618 11.53827716 -81.08802432 -0.78679812 -64.61474609 -8.23242188 C-43.59867684 -16.4945532 -18.09789612 -13.81284845 0 0 Z M-71.23974609 30.77539062 C-77.26143141 39.62870178 -79.03145468 49.90484548 -77.14599609 60.36914062 C-74.53697541 70.40144635 -68.0888552 79.65166053 -59.29833984 85.24023438 C-49.22046045 90.64980031 -39.10915126 92.11438075 -28.01318359 89.04882812 C-16.61652328 84.95590987 -9.04356102 77.29422893 -3.51708984 66.65429688 C0.06639244 57.803929 -0.26960808 47.19845458 -3.67724609 38.39257812 C-8.76335663 27.79295282 -15.71932091 20.40098163 -26.67724609 15.89257812 C-44.08953556 10.83936125 -59.99497779 16.88161441 -71.23974609 30.77539062 Z " fill="#FFFFFF" transform="translate(879.61474609375,86.232421875)"/>
<path d="M0 0 C3.92148374 2.32519203 6.54796429 4.64389286 8 9 C8.11659934 10.91654051 8.17666749 12.83672153 8.20532227 14.7565918 C8.22526749 15.93758957 8.24521271 17.11858734 8.26576233 18.33537292 C8.28247482 19.61044205 8.29918732 20.88551117 8.31640625 22.19921875 C8.33718735 23.50454056 8.35796844 24.80986237 8.37937927 26.15473938 C8.43452273 29.62182353 8.48396595 33.08896646 8.53222656 36.55615234 C8.5824981 40.09543069 8.63815463 43.63462389 8.69335938 47.17382812 C8.80084638 54.11581156 8.90231227 61.05787194 9 68 C9.68253845 67.58341629 10.3650769 67.16683258 11.06829834 66.73762512 C12.4145932 65.92161079 12.4145932 65.92161079 13.78808594 65.08911133 C14.67687439 64.54877762 15.56566284 64.00844391 16.48138428 63.45173645 C19.32736251 61.81130742 22.11408341 60.65997687 25.25 59.6875 C26.20390625 59.38199219 27.1578125 59.07648438 28.140625 58.76171875 C43.99366646 54.53857246 59.77969229 56.8806753 73.921875 64.9765625 C78.78291249 68.17201608 82.91741236 71.87263078 87 76 C87.55042969 76.51691406 88.10085938 77.03382812 88.66796875 77.56640625 C92.3967731 81.39517854 94.75643511 85.97751924 97.1875 90.6875 C97.52088379 91.32244385 97.85426758 91.9573877 98.19775391 92.61157227 C103.59153912 103.52265414 104.46663753 114.6367884 104.43359375 126.6171875 C104.43816751 128.08782184 104.44347658 129.55845405 104.44947815 131.02908325 C104.45834039 134.08653547 104.45606088 137.14372542 104.44604492 140.20117188 C104.43448783 144.10838933 104.4549031 148.01471197 104.48396206 151.92181206 C104.50233444 154.94853388 104.50203091 157.97504075 104.49632454 161.00180435 C104.49617185 162.44264112 104.50217234 163.88349293 104.51461601 165.32427597 C104.52956355 167.33576195 104.51619955 169.3473974 104.50170898 171.35888672 C104.50154282 172.49961639 104.50137665 173.64034607 104.50120544 174.81564331 C103.8811514 178.75509225 102.48390272 180.91061278 100 184 C96.21050603 186.21649647 93.7668173 187 89.375 187 C84.75570806 185.63132091 82.40776705 183.25440141 79.87924194 179.20521545 C78.75053115 176.37431037 78.74824992 174.07625247 78.74462891 171.02905273 C78.73766998 169.82357285 78.73071106 168.61809296 78.72354126 167.37608337 C78.72453827 166.0750618 78.72553528 164.77404022 78.7265625 163.43359375 C78.71799469 162.07559766 78.70799216 160.71760994 78.69662476 159.3596344 C78.6505276 153.60625361 78.62579514 147.85292442 78.61914062 142.09936523 C78.61408102 138.57372787 78.58960223 135.04863264 78.55381393 131.52318001 C78.53943795 129.54768642 78.54660617 127.57207307 78.55435181 125.59654236 C78.42894939 113.99024877 75.58586328 103.99065277 68 95 C61.20168632 88.43611093 53.05203835 84.8542269 43.625 84.4375 C34.68932839 84.74308311 26.05492539 87.98603457 19.5234375 94.21484375 C10.27475824 105.05239868 8.56259737 116.48404567 8.62890625 130.328125 C8.62219727 131.68952448 8.61361189 133.05091586 8.60325623 134.41229248 C8.56350433 140.14399157 8.56195958 145.8756076 8.56420898 151.60742188 C8.5642602 155.13343816 8.54504899 158.65895748 8.51487541 162.18483734 C8.50411627 164.16448113 8.51618211 166.14420689 8.52870178 168.12384033 C8.43531339 179.37037003 8.43531339 179.37037003 4 184 C-0.09301646 186.56816719 -2.99639727 187.30242547 -7.6875 186.5 C-11.83040832 185.36369976 -13.78930879 183.77659748 -16 180 C-17.14485996 176.56542013 -17.13167511 173.91886137 -17.14044189 170.29495239 C-17.14341302 169.60988015 -17.14638414 168.92480791 -17.1494453 168.2189759 C-17.15813243 165.9182698 -17.15964054 163.61761574 -17.16113281 161.31689453 C-17.16576093 159.66941212 -17.17078559 158.02193077 -17.17617798 156.37445068 C-17.18930355 151.89509703 -17.19574711 147.41575837 -17.20018864 142.93638849 C-17.20311878 140.13875152 -17.20722345 137.34111865 -17.21169281 134.54348373 C-17.22536743 125.79280717 -17.23503457 117.04213999 -17.2388947 108.29145348 C-17.24337715 98.18522408 -17.26093386 88.07912982 -17.2898953 77.97294152 C-17.31149807 70.16394749 -17.32159821 62.35499153 -17.32293582 54.54596794 C-17.32398475 49.88054899 -17.32991133 45.21525707 -17.34775543 40.54986954 C-17.36421212 36.16187893 -17.36640336 31.7741112 -17.35761642 27.38610077 C-17.35684479 25.77563506 -17.36120541 24.16515749 -17.37107468 22.55472183 C-17.38375963 20.35588646 -17.37793688 18.15784458 -17.36749268 15.95901489 C-17.36895924 14.72863054 -17.3704258 13.49824619 -17.3719368 12.23057747 C-16.83846762 7.59695818 -14.97476844 5.06077742 -11.875 1.6875 C-7.8544976 -0.6723601 -4.54791475 -1.0477278 0 0 Z " fill="#FFFFFF" transform="translate(258,17)"/>
<path d="M0 0 C4.979942 2.489971 6.88431609 4.92846069 9 10 C9.37181091 13.00126648 9.37181091 13.00126648 9.36889648 16.19799805 C9.37577988 17.40332687 9.38266327 18.6086557 9.38975525 19.85050964 C9.38359695 21.14120865 9.37743866 22.43190765 9.37109375 23.76171875 C9.37779771 25.11685711 9.38638051 26.47198734 9.39674377 27.82710266 C9.43661395 33.55488797 9.4380602 39.2825969 9.43579102 45.01049805 C9.43573946 48.52544005 9.45513445 52.03989037 9.48512459 55.55469704 C9.49580665 57.52136031 9.48386456 59.48810555 9.47129822 61.45475769 C9.5652047 72.88095727 12.31056621 83.25450664 20 92 C27.60980899 98.76720038 36.42842228 102.71665408 46.71484375 102.28125 C57.76333848 100.92143526 65.39749918 95.61678751 72.4609375 87.21484375 C77.31343574 80.23168004 79.11417015 72.31511207 79.1418457 63.92797852 C79.14888016 62.72645645 79.15591461 61.52493439 79.16316223 60.28700256 C79.16940865 58.35249489 79.16940865 58.35249489 79.17578125 56.37890625 C79.18621538 55.03278323 79.19763959 53.68666756 79.21000671 52.34056091 C79.26225794 46.64040322 79.31044893 40.94038249 79.32592773 35.23999023 C79.3360354 31.74560051 79.36542146 28.25182125 79.40724754 24.75767326 C79.42545502 22.78917645 79.42291579 20.82052283 79.41999817 18.85194397 C79.57210242 7.74062393 79.57210242 7.74062393 84 3 C86.97106942 0.59102479 88.6745346 0.03487129 92.5 -0.375 C97.55224895 0.16631239 99.81597036 1.63075974 103.11317444 5.44372559 C105.97119151 9.8913734 105.55093256 14.6486788 105.50170898 19.77539062 C105.50981346 21.38621773 105.50981346 21.38621773 105.51808167 23.02958679 C105.5305679 26.57208997 105.51407766 30.11378032 105.49609375 33.65625 C105.49624874 36.12194868 105.4977377 38.5876476 105.50050354 41.05334473 C105.5018875 46.21812728 105.48932951 51.38263213 105.46655273 56.54736328 C105.43816858 63.16514334 105.4409057 69.78246198 105.45364285 76.40027618 C105.46060031 81.4909458 105.45280987 86.5815089 105.44038582 91.67216492 C105.43587201 94.11219372 105.4355339 96.55223396 105.43945122 98.99226379 C105.44236398 102.40328377 105.42585222 105.81366956 105.40405273 109.22460938 C105.40855438 110.23154343 105.41305603 111.23847748 105.41769409 112.27592468 C105.35195266 118.4722969 104.74951956 123.15228331 100.25 127.8125 C95.7917847 130.16544696 92.2161923 130.31453249 87.375 129.0625 C83.07264924 126.43328564 81.2713168 123.40656393 79 119 C77.92621094 119.55429688 76.85242188 120.10859375 75.74609375 120.6796875 C74.31006109 121.41178258 72.87385382 122.14353523 71.4375 122.875 C70.73302734 123.23980469 70.02855469 123.60460937 69.30273438 123.98046875 C55.30226249 131.07748215 39.86896998 131.55317741 25 127 C9.58104357 121.26877227 -2.36779136 110.32975613 -9.68359375 95.61328125 C-15.13205787 83.52735964 -16.3156131 72.9460629 -16.30078125 59.76171875 C-16.30467688 58.30825175 -16.30901331 56.85478586 -16.31376648 55.40132141 C-16.32117897 52.37485028 -16.32097138 49.34849596 -16.31567383 46.32202148 C-16.30984918 42.45067342 -16.32690564 38.57979914 -16.3500185 34.70852947 C-16.36475969 31.71532924 -16.36562767 28.72224354 -16.36250877 25.72901344 C-16.36302059 24.30130885 -16.36823215 22.87359761 -16.37832069 21.44592857 C-16.39069027 19.4531662 -16.38194621 17.46030678 -16.37231445 15.4675293 C-16.37294388 14.33631149 -16.3735733 13.20509369 -16.3742218 12.03959656 C-15.8039758 7.40780395 -13.56634922 3.97195768 -10 1 C-6.38069302 -0.20643566 -3.80768995 -0.32268559 0 0 Z " fill="#FFFFFF" transform="translate(415,74)"/>
<path d="M0 0 C3.36619025 2.91736488 4.83204282 5.47658564 6.8125 9.4375 C7.50472656 8.97859375 8.19695313 8.5196875 8.91015625 8.046875 C23.02052397 -0.80231477 38.40799876 -3.99432387 54.875 -0.5 C71.77099897 4.38915179 84.7739509 14.49684291 93.69140625 29.625 C100.58841015 42.52628497 102.28787442 55.25829677 102.24609375 69.8125 C102.25067095 71.23543543 102.255981 72.65836867 102.26197815 74.08129883 C102.27081962 77.0326448 102.26858367 79.98371875 102.25854492 82.93505859 C102.24696448 86.70546723 102.26744853 90.47495178 102.29646206 94.24523926 C102.31483223 97.17073437 102.31453181 100.09600709 102.30882454 103.02154541 C102.30867196 104.41214308 102.31466327 105.80275642 102.32711601 107.19329834 C102.43113315 120.68625212 102.43113315 120.68625212 97.8125 125.4375 C93.71948354 128.00566719 90.81610273 128.73992547 86.125 127.9375 C81.98394408 126.80876244 80.05732669 125.17887782 77.8125 121.4375 C76.47247096 118.75744191 76.67305826 116.67882989 76.65478516 113.67773438 C76.64452301 112.46887573 76.63426086 111.26001709 76.62368774 110.01452637 C76.61638641 108.70004517 76.60908508 107.38556396 76.6015625 106.03125 C76.5885936 104.66800124 76.57477694 103.3047603 76.56015015 101.94152832 C76.49864605 96.15152125 76.44473472 90.36153045 76.41113281 84.57128906 C76.39002185 81.02855555 76.35457887 77.48619704 76.31037521 73.94367981 C76.2895538 71.95321696 76.2841927 69.9626114 76.27920532 67.9720459 C76.11524343 55.7581306 73.69808721 44.33627799 64.7734375 35.39453125 C56.63141968 28.64787691 48.5838565 25.68116546 37.98828125 26.0546875 C29.04663528 27.13252428 20.93692938 31.5492874 15.125 38.4375 C7.85715247 48.61248654 6.23004881 58.57087712 6.30859375 70.86328125 C6.30120697 72.2232544 6.29164829 73.5832173 6.28004456 74.94316101 C6.25358405 78.49016467 6.24774028 82.03683167 6.24914551 85.58392334 C6.25139119 91.27656545 6.23709299 96.96879512 6.19355965 102.66127586 C6.18378812 104.63649198 6.19283092 106.61177255 6.20225525 108.58699036 C6.19537186 109.79231918 6.18848846 110.99764801 6.18139648 112.23950195 C6.18235825 113.29442337 6.18332001 114.34934479 6.18431091 115.43623352 C5.64977063 119.75105534 4.08626536 123.11824302 1.0625 126.25 C-3.45529288 128.63439069 -7.00212043 128.77905004 -11.875 127.375 C-15.8467782 125.05188445 -17.08763206 123.53415602 -19.1875 119.4375 C-19.75790373 115.806436 -19.72406329 112.22394774 -19.68920898 108.55444336 C-19.69461197 107.46919876 -19.70001495 106.38395416 -19.70558167 105.26582336 C-19.71806774 101.686051 -19.70157883 98.10708296 -19.68359375 94.52734375 C-19.68374873 92.0368292 -19.68523751 89.54631441 -19.68800354 87.05580139 C-19.68956457 81.17216324 -19.67120418 75.28881869 -19.64520174 69.40524441 C-19.62609553 64.71564976 -19.62460712 60.02629082 -19.63354492 55.33666992 C-19.64586674 48.8652549 -19.64353128 42.39404754 -19.62788582 35.92263985 C-19.62336856 33.45666471 -19.6230369 30.99067824 -19.62695122 28.52470207 C-19.62985985 25.07995205 -19.61337258 21.63583249 -19.59155273 18.19116211 C-19.59605438 17.17128204 -19.60055603 16.15140198 -19.60519409 15.10061646 C-19.54021029 8.92946814 -18.77568801 5.45705268 -14.6875 0.6875 C-10.36472682 -2.91481098 -4.74555789 -2.32625387 0 0 Z " fill="#FFFFFF" transform="translate(958.1875,75.5625)"/>
<path d="M0 0 C0.99 0.33 1.98 0.66 3 1 C3 104.29 3 207.58 3 314 C1.68 314 0.36 314 -1 314 C-1.0228648 274.14267304 -1.04049742 234.28534693 -1.05106533 194.42801473 C-1.05231611 189.72764457 -1.05361042 185.02727443 -1.05493164 180.3269043 C-1.05519395 179.39110418 -1.05545626 178.45530407 -1.05572652 177.49114638 C-1.06008355 162.31811561 -1.06797128 147.14508862 -1.0771528 131.97206009 C-1.08648841 116.41517478 -1.09205541 100.85829146 -1.09408849 85.30140346 C-1.09546391 75.69394549 -1.09981552 66.08649817 -1.10791647 56.47904348 C-1.11318279 49.9001467 -1.11480456 43.32125546 -1.11350138 36.74235673 C-1.11285782 32.94080031 -1.1138775 29.13926257 -1.11920547 25.33770943 C-1.12492625 21.22610884 -1.12300122 17.11454857 -1.12025452 13.00294495 C-1.12316736 11.78799097 -1.1260802 10.573037 -1.12908131 9.32126623 C-1.12709026 8.22897237 -1.12509921 7.13667851 -1.12304783 6.01128483 C-1.12342755 5.06084484 -1.12380727 4.11040486 -1.1241985 3.13116366 C-1 1 -1 1 0 0 Z " fill="#FFFFFF" transform="translate(190,0)"/>
<path d="M0 0 C1.98 0 3.96 0 6 0 C7.84277344 1.88012695 7.84277344 1.88012695 9.359375 4.48828125 C9.91753906 5.42220703 10.47570313 6.35613281 11.05078125 7.31835938 C11.61152344 8.30642578 12.17226562 9.29449219 12.75 10.3125 C13.32621094 11.28896484 13.90242188 12.26542969 14.49609375 13.27148438 C15.56585135 15.08558381 16.6264046 16.90516397 17.67480469 18.73168945 C18.72235269 20.52475661 19.84808565 22.27212848 21 24 C21.33 16.08 21.66 8.16 22 0 C24.31 0 26.62 0 29 0 C29 13.2 29 26.4 29 40 C26.69 40 24.38 40 22 40 C19.82836914 37.70507812 19.82836914 37.70507812 18.03515625 34.53125 C17.38095703 33.40332031 16.72675781 32.27539062 16.05273438 31.11328125 C15.38875229 29.90916865 14.72534805 28.70473724 14.0625 27.5 C13.37414251 26.29420096 12.68341157 25.08975355 11.99023438 23.88671875 C10.30342016 20.93774285 8.64862451 17.97049461 7 15 C6.67 23.25 6.34 31.5 6 40 C4.02 40 2.04 40 0 40 C0 26.8 0 13.6 0 0 Z " fill="#FFFFFF" transform="translate(1093,257)"/>
<path d="M0 0 C20 0 20 0 25.25 3.5 C27.96079138 7.37255911 28.06803973 11.35061876 28 16 C27.02778353 20.06563253 25.1718226 22.30875658 22 25 C21.01 25.33 20.02 25.66 19 26 C19.6496875 26.84304688 20.299375 27.68609375 20.96875 28.5546875 C21.81275117 29.66126681 22.65648749 30.76804815 23.5 31.875 C23.92925781 32.43058594 24.35851562 32.98617187 24.80078125 33.55859375 C28 37.7734375 28 37.7734375 28 40 C23.15151515 41.14600551 23.15151515 41.14600551 20 40 C17.76413115 37.3300881 15.92445903 34.69366286 14.14672852 31.7121582 C11.6811685 27.53270333 11.6811685 27.53270333 7 26 C7 30.62 7 35.24 7 40 C4.69 40 2.38 40 0 40 C0 26.8 0 13.6 0 0 Z M7 6 C7 10.62 7 15.24 7 20 C8.5675 20.061875 10.135 20.12375 11.75 20.1875 C12.63171875 20.22230469 13.5134375 20.25710938 14.421875 20.29296875 C17.52513461 19.94032561 18.82324472 19.2216883 21 17 C21.62723208 15.06574514 21.62723208 15.06574514 21.5 13 C21.5103125 12.319375 21.520625 11.63875 21.53125 10.9375 C21.12708072 8.84801345 21.12708072 8.84801345 19.296875 7.26171875 C16.55056514 5.75311656 14.85994809 5.68973889 11.75 5.8125 C9.39875 5.9053125 9.39875 5.9053125 7 6 Z " fill="#FFFFFF" transform="translate(296,257)"/>
<path d="M0 0 C1.98 0 3.96 0 6 0 C8.05810547 2.29492188 8.05810547 2.29492188 9.8671875 5.46875 C10.52460937 6.59667969 11.18203125 7.72460938 11.859375 8.88671875 C12.53173623 10.09087447 13.20360503 11.29530526 13.875 12.5 C14.56826452 13.70560706 15.26355529 14.91005138 15.9609375 16.11328125 C17.660609 19.06409982 19.33292026 22.03064677 21 25 C21.33 16.75 21.66 8.5 22 0 C23.98 0 25.96 0 28 0 C28 13.2 28 26.4 28 40 C26.02 40 24.04 40 22 40 C19.94189453 37.70507812 19.94189453 37.70507812 18.1328125 34.53125 C17.47539063 33.40332031 16.81796875 32.27539062 16.140625 31.11328125 C15.46826377 29.90912553 14.79639497 28.70469474 14.125 27.5 C13.43173548 26.29439294 12.73644471 25.08994862 12.0390625 23.88671875 C10.339391 20.93590018 8.66707974 17.96935323 7 15 C6.67 23.25 6.34 31.5 6 40 C4.02 40 2.04 40 0 40 C0 26.8 0 13.6 0 0 Z " fill="#FFFFFF" transform="translate(730,257)"/>
<path d="M0 0 C1.92456717 1.20884735 3.73592467 2.45733435 5.5078125 3.87890625 C3.8578125 5.52890625 2.2078125 7.17890625 0.5078125 8.87890625 C-0.1728125 8.38390625 -0.8534375 7.88890625 -1.5546875 7.37890625 C-5.21049919 5.51210879 -7.42527178 5.45080986 -11.4921875 5.87890625 C-15.00520138 7.16250748 -16.95607656 8.21338922 -19.3046875 11.12890625 C-21.4089818 16.00200885 -21.93030441 19.44285638 -20.3671875 24.56640625 C-17.66830218 29.33443699 -15.41312036 31.34531379 -10.1171875 32.81640625 C-5.70557212 32.89246858 -3.27910279 32.13649037 0.5078125 29.87890625 C2.48587661 26.84479518 2.48587661 26.84479518 3.5078125 23.87890625 C-0.1221875 23.87890625 -3.7521875 23.87890625 -7.4921875 23.87890625 C-7.4921875 22.22890625 -7.4921875 20.57890625 -7.4921875 18.87890625 C-1.5521875 18.87890625 4.3878125 18.87890625 10.5078125 18.87890625 C10.5078125 25.69727555 10.10747074 28.4970068 6.5078125 33.87890625 C2.27410037 38.11261838 -1.95711918 39.6441777 -7.8671875 40.19140625 C-13.54804882 39.70167683 -17.76471729 38.25303028 -22.2421875 34.69140625 C-26.59343655 29.25234493 -29.24321363 24.28621048 -28.875 17.1796875 C-27.94793921 11.60786297 -25.83487728 6.71283962 -21.5546875 2.94140625 C-15.10408731 -1.40287551 -7.38656073 -3.32279456 0 0 Z " fill="#FFFFFF" transform="translate(1015.4921875,258.12109375)"/>
<path d="M0 0 C1.4540625 0.0309375 1.4540625 0.0309375 2.9375 0.0625 C6.25123719 7.26593346 9.13672313 14.60734838 11.93896484 22.02172852 C12.69583595 24.02203073 13.45903854 26.01984309 14.22265625 28.01757812 C14.70610857 29.29152275 15.18919529 30.56560619 15.671875 31.83984375 C16.10725586 32.98702881 16.54263672 34.13421387 16.99121094 35.31616211 C17.9375 38.0625 17.9375 38.0625 17.9375 40.0625 C15.6275 40.0625 13.3175 40.0625 10.9375 40.0625 C9.4525 35.1125 9.4525 35.1125 7.9375 30.0625 C2.6575 30.0625 -2.6225 30.0625 -8.0625 30.0625 C-8.5575 32.5375 -8.5575 32.5375 -9.0625 35.0625 C-9.69687344 36.7417238 -10.35539322 38.41258418 -11.0625 40.0625 C-13.3725 40.0625 -15.6825 40.0625 -18.0625 40.0625 C-15.88705392 32.1959109 -13.10389544 24.5886403 -10.19140625 16.97290039 C-9.4275417 14.97394007 -8.67048269 12.97249078 -7.9140625 10.97070312 C-7.43008291 9.69776626 -6.94572243 8.42497413 -6.4609375 7.15234375 C-5.80617432 5.43325806 -5.80617432 5.43325806 -5.13818359 3.67944336 C-3.65643654 0.07462115 -3.65643654 0.07462115 0 0 Z M-1.0625 11.0625 C-1.73510351 12.83108691 -2.40038395 14.60246016 -3.0625 16.375 C-3.43375 17.36113281 -3.805 18.34726562 -4.1875 19.36328125 C-5.21668502 22.06521656 -5.21668502 22.06521656 -5.0625 25.0625 C-1.4325 25.0625 2.1975 25.0625 5.9375 25.0625 C4.2875 20.4425 2.6375 15.8225 0.9375 11.0625 C0.2775 11.0625 -0.3825 11.0625 -1.0625 11.0625 Z " fill="#FFFFFF" transform="translate(259.0625,256.9375)"/>
<path d="M0 0 C2.31 0 4.62 0 7 0 C9.00015633 5.2120335 10.99380901 10.4264896 12.98144531 15.64331055 C13.65869304 17.4180827 14.33772072 19.19217667 15.01855469 20.96557617 C15.99621552 23.51305247 16.96747325 26.06288991 17.9375 28.61328125 C18.24373291 29.40712723 18.54996582 30.20097321 18.86547852 31.01887512 C21 36.65838488 21 36.65838488 21 40 C19.02 40 17.04 40 15 40 C13.68 37.03 12.36 34.06 11 31 C6.05 31 1.1 31 -4 31 C-5.32 33.97 -6.64 36.94 -8 40 C-10.31 40 -12.62 40 -15 40 C-10.40139208 26.49158922 -5.40841379 13.20495834 0 0 Z M3 10 C2.16260219 12.1234016 1.33019717 14.2487728 0.5 16.375 C0.0359375 17.55835938 -0.428125 18.74171875 -0.90625 19.9609375 C-2.11287794 22.7753244 -2.11287794 22.7753244 -2 25 C1.63 25 5.26 25 9 25 C6.8092006 17.39230548 6.8092006 17.39230548 4 10 C3.67 10 3.34 10 3 10 Z " fill="#FFFFFF" transform="translate(589,257)"/>
<path d="M0 0 C7.92 0 15.84 0 24 0 C24 1.98 24 3.96 24 6 C18.06 6 12.12 6 6 6 C6 9.96 6 13.92 6 18 C11.28 18 16.56 18 22 18 C22 19.98 22 21.96 22 24 C16.72 24 11.44 24 6 24 C6 27.3 6 30.6 6 34 C11.94 34 17.88 34 24 34 C24 35.98 24 37.96 24 40 C16.08 40 8.16 40 0 40 C0 26.8 0 13.6 0 0 Z " fill="#FFFFFF" transform="translate(829,257)"/>
<path d="M0 0 C7.92 0 15.84 0 24 0 C24 1.98 24 3.96 24 6 C18.06 6 12.12 6 6 6 C6 9.96 6 13.92 6 18 C10.95 18 15.9 18 21 18 C21 19.98 21 21.96 21 24 C16.05 24 11.1 24 6 24 C6 27.3 6 30.6 6 34 C11.94 34 17.88 34 24 34 C24 35.98 24 37.96 24 40 C16.08 40 8.16 40 0 40 C0 26.8 0 13.6 0 0 Z " fill="#FFFFFF" transform="translate(1047,257)"/>
<path d="M0 0 C7.59 0 15.18 0 23 0 C23 1.98 23 3.96 23 6 C17.39 6 11.78 6 6 6 C6 9.96 6 13.92 6 18 C10.95 18 15.9 18 21 18 C21 19.98 21 21.96 21 24 C16.05 24 11.1 24 6 24 C6 27.3 6 30.6 6 34 C11.94 34 17.88 34 24 34 C24 35.98 24 37.96 24 40 C16.08 40 8.16 40 0 40 C0 26.8 0 13.6 0 0 Z " fill="#FFFFFF" transform="translate(1199,257)"/>
<path d="M0 0 C2.12011219 1.43107573 3.84013637 2.75099243 5.5 4.6875 C4.84 6.0075 4.18 7.3275 3.5 8.6875 C-0.5 8.6875 -0.5 8.6875 -2.8125 7.1875 C-6.36244794 5.20613371 -8.47614527 5.20186236 -12.5 5.6875 C-16.01328559 6.83690825 -18.57514879 8.32634025 -20.67578125 11.41796875 C-22.74145198 15.97700414 -22.77830447 19.84786104 -21.421875 24.63671875 C-19.78084606 28.28731278 -17.94676816 29.60643243 -14.5 31.6875 C-11.04830228 32.77414558 -8.80956479 33.24031816 -5.41796875 31.80859375 C-4.05315118 31.0818727 -2.70918606 30.31396143 -1.39453125 29.5 C0.9708572 28.48556537 2.12034121 28.84327515 4.5 29.6875 C4.995 31.6675 4.995 31.6675 5.5 33.6875 C0.94174611 37.70948873 -2.81505888 39.43889434 -8.875 40 C-14.55586132 39.51027058 -18.77252979 38.06162403 -23.25 34.5 C-27.59762992 29.0654626 -30.26697348 24.08889424 -29.875 16.984375 C-28.83946832 10.64174348 -26.55564951 6.13686398 -21.4375 2.1875 C-14.99424206 -2.2646552 -7.29499671 -2.73562376 0 0 Z " fill="#FFFFFF" transform="translate(1172.5,258.3125)"/>
<path d="M0 0 C3.02008556 1.58224857 4.11535118 3.1189411 5.4375 6.25 C3.7875 7.24 2.1375 8.23 0.4375 9.25 C-0.573125 8.59 -1.58375 7.93 -2.625 7.25 C-6.42702407 5.10369609 -9.15928637 4.60953256 -13.5625 5.25 C-17.89932792 7.5018145 -20.73177416 9.67318541 -22.5625 14.25 C-23.2639588 18.92639202 -22.99780397 22.30974344 -21 26.625 C-17.95853219 29.90042687 -15.89817149 31.11277469 -11.5625 32.25 C-7.268035 31.89095457 -3.66052788 31.34802788 -0.5625 28.25 C1.4375 28.4375 1.4375 28.4375 3.4375 29.25 C4.0975 30.24 4.7575 31.23 5.4375 32.25 C0.52337846 36.69610996 -3.16748799 38.93564704 -9.9375 39.5625 C-16.37549795 39.00750018 -20.83363242 37.41117713 -25.4375 32.75 C-29.65387613 27.50123887 -30.94847228 21.6470568 -30.36328125 14.98046875 C-29.09997519 8.91891766 -26.39777307 4.63581844 -21.5 0.9375 C-14.90829049 -2.84922674 -6.94397834 -3.24306681 0 0 Z " fill="#FFFFFF" transform="translate(523.5625,258.75)"/>
<path d="M0 0 C7.59 0 15.18 0 23 0 C23 1.98 23 3.96 23 6 C17.39 6 11.78 6 6 6 C6 9.96 6 13.92 6 18 C10.62 18 15.24 18 20 18 C20 19.98 20 21.96 20 24 C15.38 24 10.76 24 6 24 C6 29.28 6 34.56 6 40 C4.02 40 2.04 40 0 40 C0 26.8 0 13.6 0 0 Z " fill="#FFFFFF" transform="translate(422,257)"/>
<path d="M0 0 C9.57 0 19.14 0 29 0 C29 1.98 29 3.96 29 6 C25.37 6 21.74 6 18 6 C18 17.22 18 28.44 18 40 C15.69 40 13.38 40 11 40 C11 28.78 11 17.56 11 6 C7.37 6 3.74 6 0 6 C0 4.02 0 2.04 0 0 Z " fill="#FFFFFF" transform="translate(342,257)"/>
<path d="M0 0 C9.9 0 19.8 0 30 0 C30 1.98 30 3.96 30 6 C26.04 6 22.08 6 18 6 C18 17.22 18 28.44 18 40 C16.02 40 14.04 40 12 40 C12 28.78 12 17.56 12 6 C8.04 6 4.08 6 0 6 C0 4.02 0 2.04 0 0 Z " fill="#FFFFFF" transform="translate(779,257)"/>
<path d="M0 0 C1.98 0 3.96 0 6 0 C6 11.22 6 22.44 6 34 C11.28 34 16.56 34 22 34 C22 35.98 22 37.96 22 40 C14.74 40 7.48 40 0 40 C0 26.8 0 13.6 0 0 Z " fill="#FFFFFF" transform="translate(917,257)"/>
<path d="M0 0 C1.98 0 3.96 0 6 0 C6 11.22 6 22.44 6 34 C11.28 34 16.56 34 22 34 C22 35.98 22 37.96 22 40 C14.74 40 7.48 40 0 40 C0 26.8 0 13.6 0 0 Z " fill="#FFFFFF" transform="translate(875,257)"/>
<path d="M0 0 C1.98 0 3.96 0 6 0 C6 11.22 6 22.44 6 34 C11.28 34 16.56 34 22 34 C22 35.98 22 37.96 22 40 C14.74 40 7.48 40 0 40 C0 26.8 0 13.6 0 0 Z " fill="#FFFFFF" transform="translate(630,257)"/>
<path d="M0 0 C2.31 0 4.62 0 7 0 C7 13.2 7 26.4 7 40 C4.69 40 2.38 40 0 40 C0 26.8 0 13.6 0 0 Z " fill="#FFFFFF" transform="translate(959,257)"/>
<path d="M0 0 C2.31 0 4.62 0 7 0 C7 13.2 7 26.4 7 40 C4.69 40 2.38 40 0 40 C0 26.8 0 13.6 0 0 Z " fill="#FFFFFF" transform="translate(699,257)"/>
<path d="M0 0 C1.98 0 3.96 0 6 0 C6 13.2 6 26.4 6 40 C4.02 40 2.04 40 0 40 C0 26.8 0 13.6 0 0 Z " fill="#FFFFFF" transform="translate(549,257)"/>
<path d="M0 0 C1.98 0 3.96 0 6 0 C6 13.2 6 26.4 6 40 C4.02 40 2.04 40 0 40 C0 26.8 0 13.6 0 0 Z " fill="#FFFFFF" transform="translate(466,257)"/>
<path d="M0 0 C1.98 0 3.96 0 6 0 C6 13.2 6 26.4 6 40 C4.02 40 2.04 40 0 40 C0 26.8 0 13.6 0 0 Z " fill="#FFFFFF" transform="translate(392,257)"/>
</svg>
